<svg width="544" height="814" viewBox="0 0 544 814" fill="none" xmlns="http://www.w3.org/2000/svg">
<!-- <g id="rightSign">
<path id="Vector" d="M374.08 195.985H487.232L543.808 97.9925L487.232 0H374.08L317.504 97.9925L374.08 195.985Z" fill="white"/>
<path id="Vector_2" d="M372.714 73.9802C375.597 73.9802 377.934 71.6431 377.934 68.7601C377.934 65.8772 375.597 63.5401 372.714 63.5401C369.831 63.5401 367.494 65.8772 367.494 68.7601C367.494 71.6431 369.831 73.9802 372.714 73.9802Z" fill="#E2E2E2"/>
<path id="Vector_3" d="M372.714 103.213C375.597 103.213 377.934 100.875 377.934 97.9925C377.934 95.1095 375.597 92.7724 372.714 92.7724C369.831 92.7724 367.494 95.1095 367.494 97.9925C367.494 100.875 369.831 103.213 372.714 103.213Z" fill="#E2E2E2"/>
<path id="Vector_4" d="M372.714 132.445C375.597 132.445 377.934 130.108 377.934 127.225C377.934 124.342 375.597 122.005 372.714 122.005C369.831 122.005 367.494 124.342 367.494 127.225C367.494 130.108 369.831 132.445 372.714 132.445Z" fill="#E2E2E2"/>
<path id="Vector_5" d="M493.819 64.5841H394.638V72.9362H493.819V64.5841Z" fill="#E2E2E2"/>
<path id="Vector_6" d="M493.819 93.8164H394.638V102.168H493.819V93.8164Z" fill="#E2E2E2"/>
<path id="Vector_7" d="M493.819 123.049H394.638V131.401H493.819V123.049Z" fill="#E2E2E2"/>
</g> -->

<g id="man">
<path id="Vector_15" d="M310.54 813.439C362.795 813.439 405.157 804.474 405.157 793.416C405.157 782.357 362.795 773.392 310.54 773.392C258.285 773.392 215.923 782.357 215.923 793.416C215.923 804.474 258.285 813.439 310.54 813.439Z" fill="#E6E6E6"/>
<path id="Vector_16" d="M290.442 287.317C290.442 287.317 300.779 325.884 309.564 328.447C318.349 331.01 262.705 339.013 262.705 339.013L261.477 304.451L290.442 287.317Z" fill="#A0616A"/>
<path id="Vector_17" d="M244.998 527.889L255.288 549.94L267.049 538.179L259.698 520.538L244.998 527.889Z" fill="#A0616A"/>
<path id="Vector_18" d="M372.895 514.658L369.954 535.239L361.134 529.359V507.308L372.895 514.658Z" fill="#A0616A"/>
<path id="Vector_19" d="M246.468 736.64L242.058 771.922L265.579 773.392L262.639 736.64H246.468Z" fill="#A0616A"/>
<path id="Vector_20" d="M375.835 736.64L380.245 771.922L356.724 773.392L359.664 736.64H375.835Z" fill="#A0616A"/>
<path id="Vector_21" d="M256.758 516.128C256.758 516.128 246.468 544.06 247.938 555.82C249.408 567.581 236.177 627.854 240.587 633.734C244.998 639.615 244.998 646.965 242.058 651.375C239.117 655.786 237.647 649.905 239.117 657.256C240.587 664.606 237.647 701.358 239.117 707.238C240.587 713.119 234.707 714.589 237.647 720.469C240.587 726.35 244.998 743.99 244.998 743.99L264.109 742.52L267.049 726.35C267.049 726.35 275.869 724.879 274.399 716.059C272.929 707.238 281.75 648.435 281.75 648.435L306.741 566.111L342.023 641.085C342.023 641.085 343.493 694.008 347.903 699.888C352.314 705.768 343.493 721.939 347.903 727.82C352.314 733.7 356.724 743.99 356.724 743.99H378.775V732.23C378.775 732.23 392.006 724.879 378.775 702.828L375.835 576.401L367.014 516.128H256.758Z" fill="#2F2E41"/>
<path id="Vector_22" d="M268.519 767.512C268.519 767.512 258.228 763.101 253.818 766.042C249.408 768.982 246.468 764.572 246.468 764.572C246.468 764.572 240.587 761.631 239.117 766.042C237.987 769.14 236.507 772.099 234.707 774.862C234.707 774.862 225.887 791.033 231.767 795.443C237.647 799.854 242.058 802.794 242.058 805.734C242.058 808.674 269.989 810.144 269.989 805.734C269.989 801.324 268.519 767.512 268.519 767.512Z" fill="#2F2E41"/>
<path id="Vector_23" d="M353.784 767.512C353.784 767.512 364.074 763.101 368.484 766.042C372.895 768.982 375.835 764.572 375.835 764.572C375.835 764.572 381.715 761.631 383.185 766.042C384.316 769.14 385.795 772.099 387.595 774.862C387.595 774.862 396.416 791.033 390.536 795.443C384.655 799.853 380.245 802.794 380.245 805.734C380.245 808.674 352.314 810.144 352.314 805.734C352.314 801.324 353.784 767.512 353.784 767.512Z" fill="#2F2E41"/>
<path id="Vector_24" d="M344.228 336.043C344.228 336.043 303.066 319.872 281.015 325.753C258.963 331.633 222.211 358.094 223.682 363.975C225.152 369.855 239.117 438.214 239.117 438.214C239.117 438.214 239.117 479.376 246.468 492.607C253.818 505.837 255.288 516.128 255.288 516.128L253.818 530.829C253.818 530.829 292.04 533.769 312.621 524.949C333.203 516.128 367.014 522.008 367.014 522.008C367.014 522.008 349.373 448.504 340.553 436.744C331.732 424.983 344.228 336.043 344.228 336.043Z" fill="#575A89"/>
<path id="Vector_25" d="M236.177 360.3L222.947 364.71C222.947 364.71 211.186 382.351 211.186 394.111C211.186 405.872 209.716 479.376 215.596 489.667C221.476 499.957 227.357 520.538 236.177 522.008L246.468 535.239L264.109 523.478L258.228 510.248L236.177 360.3Z" fill="#575A89"/>
<path id="Vector_26" d="M324.382 338.248L339.005 334.141L344.963 336.778C344.963 336.778 367.014 358.83 374.365 380.881C381.715 402.932 383.185 488.197 383.185 488.197C383.185 488.197 384.655 492.607 383.185 494.077C381.715 495.547 380.245 497.017 380.245 499.957C380.245 502.897 377.305 508.778 377.305 508.778L375.835 520.538L361.134 519.068C361.134 519.068 333.203 436.744 333.203 417.633C333.203 398.522 324.382 338.248 324.382 338.248Z" fill="#575A89"/>
<path id="Vector_27" d="M320.281 328.542C320.281 328.542 320.707 321.343 316.297 319.872C311.886 318.402 306.006 311.052 294.245 313.992C282.485 316.932 251.613 321.343 250.143 324.283C248.673 327.223 244.263 328.693 245.733 331.633C247.203 334.573 250.143 331.633 247.203 334.573C244.263 337.513 242.793 336.043 244.263 337.513C245.733 338.983 245.733 346.334 245.733 346.334C245.733 346.334 267.784 361.035 273.664 359.565C279.545 358.095 314.64 327.227 314.64 327.227L320.281 328.542Z" fill="#575A89"/>
<path id="Vector_28" opacity="0.2" d="M245.653 424.735L244.163 474.811L255.924 510.092L245.653 424.735Z" fill="black"/>
<path id="Vector_29" opacity="0.2" d="M347.112 402.857L360.414 451.157L357.34 488.22L347.112 402.857Z" fill="black"/>
<path id="Vector_30" d="M274.775 315.765C292.009 315.765 305.979 301.794 305.979 284.561C305.979 267.328 292.009 253.357 274.775 253.357C257.542 253.357 243.571 267.328 243.571 284.561C243.571 301.794 257.542 315.765 274.775 315.765Z" fill="#A0616A"/>
<path id="Vector_31" d="M248.221 282.408C250.423 288.034 252.625 293.659 254.827 299.285C257.534 306.201 260.634 313.6 266.979 317.459C274.813 322.225 285.274 319.901 292.853 314.739C306.38 305.525 313.258 287.535 309.329 271.647C305.4 255.759 290.929 243.048 274.667 241.201L274.353 246.85L267.422 241.04C265.578 244.753 259.748 245.577 256.947 242.521C258.768 246.295 256.666 250.899 253.632 253.79C249.903 257.342 239.24 261.61 239.682 267.96C239.978 272.197 246.503 278.017 248.221 282.408Z" fill="#2F2E41"/>
</g>
<g id="leftSign">
<path id="Vector_8" d="M56.5923 195.033H168.645L224.672 97.9924L168.645 0.95163H56.5923L0.565704 97.9924L56.5923 195.033Z" fill="white"/>
<path id="Vector_9" d="M55.2389 74.2134C58.0939 74.2134 60.4083 71.899 60.4083 69.044C60.4083 66.1891 58.0939 63.8747 55.2389 63.8747C52.384 63.8747 50.0695 66.1891 50.0695 69.044C50.0695 71.899 52.384 74.2134 55.2389 74.2134Z" fill="#6C63FF"/>
<path id="Vector_10" d="M55.2389 103.162C58.0939 103.162 60.4083 100.847 60.4083 97.9924C60.4083 95.1375 58.0939 92.8231 55.2389 92.8231C52.384 92.8231 50.0695 95.1375 50.0695 97.9924C50.0695 100.847 52.384 103.162 55.2389 103.162Z" fill="#6C63FF"/>
<path id="Vector_11" d="M55.2389 132.11C58.0939 132.11 60.4083 129.796 60.4083 126.941C60.4083 124.086 58.0939 121.772 55.2389 121.772C52.384 121.772 50.0695 124.086 50.0695 126.941C50.0695 129.796 52.384 132.11 55.2389 132.11Z" fill="#6C63FF"/>
<path id="Vector_12" d="M175.168 64.9085H76.9502V73.1795H175.168V64.9085Z" fill="#6C63FF"/>
<path id="Vector_13" d="M175.168 93.857H76.9502V102.128H175.168V93.857Z" fill="#6C63FF"/>
<path id="Vector_14" d="M175.168 122.805H76.9502V131.076H175.168V122.805Z" fill="#6C63FF"/>
</g>
<g id="arrow">
<path id="Ellipse 1" d="M40 118C50.7991 118 60.1195 110.992 66.5869 100.625C73.0812 90.2152 77 76.021 77 60.5C77 44.9789 73.0812 30.7848 66.5869 20.3748C60.1195 10.0078 50.7991 3 40 3C29.2009 3 19.8805 10.0078 13.4131 20.3748C6.91877 30.7848 3 44.9789 3 60.5C3 76.021 6.91877 90.2152 13.4131 100.625C19.8805 110.992 29.2009 118 40 118Z" stroke="#A2A1B1" stroke-width="5"/>
</g>
<g id="arrowInner">
<path id="Arrow 1" d="M38.2322 89.7678C39.2085 90.7441 40.7915 90.7441 41.7678 89.7678L57.6777 73.8579C58.654 72.8816 58.654 71.2986 57.6777 70.3223C56.7014 69.346 55.1184 69.346 54.1421 70.3223L40 84.4645L25.8579 70.3223C24.8816 69.346 23.2986 69.346 22.3223 70.3223C21.346 71.2986 21.346 72.8816 22.3223 73.8579L38.2322 89.7678ZM37.5 34V88H42.5V34H37.5Z" fill="#575A89"/>
</g>

</svg>
